TITLE ""
FILE "Disc6Track26.mp3" MP3
  TRACK 01 AUDIO
    TITLE "Disc6Track26_01"
    INDEX 01 00:00:00
  TRACK 02 AUDIO
    TITLE "Disc6Track26_02"
    INDEX 01 00:01:20
  TRACK 03 AUDIO
    TITLE "Disc6Track26_03"
    INDEX 01 00:03:15
  TRACK 04 AUDIO
    TITLE "Disc6Track26_04"
    INDEX 01 00:04:45
  TRACK 05 AUDIO
    TITLE "Disc6Track26_05"
    INDEX 01 00:06:60
  TRACK 06 AUDIO
    TITLE "Disc6Track26_06"
    INDEX 01 00:07:16
  TRACK 07 AUDIO
    TITLE "Disc6Track26_07"
    INDEX 01 00:08:59
  TRACK 08 AUDIO
    TITLE "Disc6Track26_08"
    INDEX 01 00:10:11
  TRACK 09 AUDIO
    TITLE "Disc6Track26_09"
    INDEX 01 00:11:51
  TRACK 10 AUDIO
    TITLE "Disc6Track26_10"
    INDEX 01 00:13:68
  TRACK 11 AUDIO
    TITLE "Disc6Track26_11"
    INDEX 01 00:14:22
  TRACK 12 AUDIO
    TITLE "Disc6Track26_12"
    INDEX 01 00:15:45
  TRACK 13 AUDIO
    TITLE "Disc6Track26_13"
    INDEX 01 00:16:68
  TRACK 14 AUDIO
    TITLE "Disc6Track26_14"
    INDEX 01 00:18:16
  TRACK 15 AUDIO
    TITLE "Disc6Track26_15"
    INDEX 01 00:18:47
  TRACK 16 AUDIO
    TITLE "Disc6Track26_16"
    INDEX 01 00:19:70
  TRACK 17 AUDIO
    TITLE "Disc6Track26_17"
    INDEX 01 00:20:74
  TRACK 18 AUDIO
    TITLE "Disc6Track26_18"
    INDEX 01 00:22:20
  TRACK 19 AUDIO
    TITLE "Disc6Track26_19"
    INDEX 01 00:24:11
  TRACK 20 AUDIO
    TITLE "Disc6Track26_20"
    INDEX 01 00:24:42
  TRACK 21 AUDIO
    TITLE "Disc6Track26_21"
    INDEX 01 00:25:59
  TRACK 22 AUDIO
    TITLE "Disc6Track26_22"
    INDEX 01 00:27:56
  TRACK 23 AUDIO
    TITLE "Disc6Track26_23"
    INDEX 01 00:28:71
  TRACK 24 AUDIO
    TITLE "Disc6Track26_24"
    INDEX 01 00:31:52
  TRACK 25 AUDIO
    TITLE "Disc6Track26_25"
    INDEX 01 00:32:04
  TRACK 26 AUDIO
    TITLE "Disc6Track26_26"
    INDEX 01 00:33:33
  TRACK 27 AUDIO
    TITLE "Disc6Track26_27"
    INDEX 01 00:34:43
  TRACK 28 AUDIO
    TITLE "Disc6Track26_28"
    INDEX 01 00:35:71
  TRACK 29 AUDIO
    TITLE "Disc6Track26_29"
    INDEX 01 00:36:30
  TRACK 30 AUDIO
    TITLE "Disc6Track26_30"
    INDEX 01 00:37:72
  TRACK 31 AUDIO
    TITLE "Disc6Track26_31"
    INDEX 01 00:39:16
  TRACK 32 AUDIO
    TITLE "Disc6Track26_32"
    INDEX 01 00:40:59
  TRACK 33 AUDIO
    TITLE "Disc6Track26_33"
    INDEX 01 00:43:65
  TRACK 34 AUDIO
    TITLE "Disc6Track26_34"
    INDEX 01 00:44:21
  TRACK 35 AUDIO
    TITLE "Disc6Track26_35"
    INDEX 01 00:45:38
  TRACK 36 AUDIO
    TITLE "Disc6Track26_36"
    INDEX 01 00:47:55
  TRACK 37 AUDIO
    TITLE "Disc6Track26_37"
    INDEX 01 00:48:68
  TRACK 38 AUDIO
    TITLE "Disc6Track26_38"
    INDEX 01 00:51:55
  TRACK 39 AUDIO
    TITLE "Disc6Track26_39"
    INDEX 01 00:52:09
  TRACK 40 AUDIO
    TITLE "Disc6Track26_40"
    INDEX 01 00:53:40
  TRACK 41 AUDIO
    TITLE "Disc6Track26_41"
    INDEX 01 00:55:31
  TRACK 42 AUDIO
    TITLE "Disc6Track26_42"
    INDEX 01 00:56:66
  TRACK 43 AUDIO
    TITLE "Disc6Track26_43"
    INDEX 01 00:57:22
  TRACK 44 AUDIO
    TITLE "Disc6Track26_44"
    INDEX 01 00:58:45
  TRACK 45 AUDIO
    TITLE "Disc6Track26_45"
    INDEX 01 01:01:02
  TRACK 46 AUDIO
    TITLE "Disc6Track26_46"
    INDEX 01 01:02:21
  TRACK 47 AUDIO
    TITLE "Disc6Track26_47"
    INDEX 01 01:08:14
  TRACK 48 AUDIO
    TITLE "Disc6Track26_48"
    INDEX 01 01:08:43
  TRACK 49 AUDIO
    TITLE "Disc6Track26_49"
    INDEX 01 01:09:72
  TRACK 50 AUDIO
    TITLE "Disc6Track26_50"
    INDEX 01 01:11:26
  TRACK 51 AUDIO
    TITLE "Disc6Track26_51"
    INDEX 01 01:12:57
